<svg xmlns="http://www.w3.org/2000/svg" width="1240" height="720" viewBox="0 0 1240 720" role="img" aria-labelledby="title desc">
  <title id="title">AI capabilities flow</title>
  <desc id="desc">Evidence flows into incident analysis, command brief, risk rationale, recommended actions, HOW TO EXECUTE guidance, case analysis, detection quality assistance, report enrichment and human approval.</desc>
  <defs>
    <marker id="arrow" markerWidth="10" markerHeight="10" refX="8" refY="3" orient="auto" markerUnits="strokeWidth">
      <path d="M0,0 L0,6 L9,3 z" fill="#a78bfa"/>
    </marker>
    <style>
      .bg { fill: #020617; }
      .node { fill: #0f172a; stroke: #334155; stroke-width: 1.2; rx: 8; }
      .ai { fill: #17112b; stroke: #a78bfa; stroke-width: 1.2; rx: 8; }
      .action { fill: #082f49; stroke: #22d3ee; stroke-width: 1.2; rx: 8; }
      .human { fill: #052e2b; stroke: #10b981; stroke-width: 1.2; rx: 8; }
      .title { fill: #e5e7eb; font: 700 28px Arial, sans-serif; }
      .subtitle { fill: #94a3b8; font: 400 14px Arial, sans-serif; }
      .label { fill: #e5e7eb; font: 700 14px Arial, sans-serif; text-anchor: middle; }
      .small { fill: #cbd5e1; font: 400 11px Arial, sans-serif; text-anchor: middle; }
      .edge { stroke: #a78bfa; stroke-width: 1.6; fill: none; marker-end: url(#arrow); }
      .edge2 { stroke: #22d3ee; stroke-width: 1.4; fill: none; marker-end: url(#arrow); }
    </style>
  </defs>
  <rect class="bg" width="1240" height="720"/>
  <text class="title" x="48" y="54">AI Capabilities Flow</text>
  <text class="subtitle" x="48" y="80">Local AI supports analysis, explanation, remediation guidance and reporting while the analyst remains in control.</text>

  <rect class="node" x="50" y="300" width="170" height="62"/>
  <text class="label" x="135" y="327">Evidence / Context</text>
  <text class="small" x="135" y="348">Incidents, cases, telemetry</text>

  <rect class="ai" x="280" y="118" width="170" height="62"/>
  <text class="label" x="365" y="145">Incident AI Analysis</text>
  <text class="small" x="365" y="166">Situation summary</text>
  <rect class="ai" x="510" y="118" width="170" height="62"/>
  <text class="label" x="595" y="145">Command Brief</text>
  <text class="small" x="595" y="166">Structured analyst brief</text>

  <rect class="action" x="740" y="40" width="170" height="62"/>
  <text class="label" x="825" y="67">Risk Rationale</text>
  <text class="small" x="825" y="88">Why it matters</text>
  <rect class="action" x="740" y="118" width="170" height="62"/>
  <text class="label" x="825" y="145">Evidence Summary</text>
  <text class="small" x="825" y="166">Signals and limits</text>
  <rect class="action" x="740" y="196" width="170" height="62"/>
  <text class="label" x="825" y="223">Recommended Actions</text>
  <text class="small" x="825" y="244">Analyst guidance</text>
  <rect class="ai" x="970" y="196" width="170" height="62"/>
  <text class="label" x="1055" y="223">HOW TO EXECUTE</text>
  <text class="small" x="1055" y="244">Explicit AI guidance</text>

  <rect class="ai" x="280" y="300" width="170" height="62"/>
  <text class="label" x="365" y="327">Correlation</text>
  <text class="small" x="365" y="348">Incident explanation</text>
  <rect class="action" x="510" y="300" width="170" height="62"/>
  <text class="label" x="595" y="327">Incident Reasoning</text>
  <text class="small" x="595" y="348">Why it was created</text>

  <rect class="ai" x="280" y="432" width="170" height="62"/>
  <text class="label" x="365" y="459">Case AI Analysis</text>
  <text class="small" x="365" y="480">Gaps and decisions</text>
  <rect class="action" x="510" y="432" width="170" height="62"/>
  <text class="label" x="595" y="459">Case Workflow</text>
  <text class="small" x="595" y="480">Owner, SLA, closure</text>
  <rect class="action" x="740" y="432" width="170" height="62"/>
  <text class="label" x="825" y="459">Report Enrichment</text>
  <text class="small" x="825" y="480">Evidence and executive</text>
  <rect class="action" x="970" y="432" width="170" height="62"/>
  <text class="label" x="1055" y="459">Executive Insights</text>
  <text class="small" x="1055" y="480">Management summary</text>

  <rect class="ai" x="280" y="564" width="170" height="62"/>
  <text class="label" x="365" y="591">Detection Quality</text>
  <text class="small" x="365" y="612">Coverage assistance</text>
  <rect class="action" x="510" y="564" width="170" height="62"/>
  <text class="label" x="595" y="591">AI Suggestion</text>
  <text class="small" x="595" y="612">Remediation support</text>

  <rect class="human" x="970" y="320" width="170" height="62"/>
  <text class="label" x="1055" y="347">Human Approval</text>
  <text class="small" x="1055" y="368">Validate, decide, act</text>

  <path class="edge" d="M220 331 H260 V149 H280"/>
  <path class="edge" d="M450 149 H510"/>
  <path class="edge" d="M680 149 H720 V71 H740"/>
  <path class="edge" d="M680 149 H740"/>
  <path class="edge" d="M680 149 H720 V227 H740"/>
  <path class="edge" d="M910 227 H970"/>
  <path class="edge" d="M1055 258 V320"/>

  <path class="edge2" d="M220 331 H280"/>
  <path class="edge2" d="M450 331 H510"/>
  <path class="edge2" d="M680 331 H970"/>

  <path class="edge2" d="M220 331 H245 V463 H280"/>
  <path class="edge2" d="M450 463 H510"/>
  <path class="edge2" d="M680 463 H740"/>
  <path class="edge2" d="M910 463 H970"/>
  <path class="edge2" d="M1055 432 V382"/>

  <path class="edge2" d="M220 331 H245 V595 H280"/>
  <path class="edge2" d="M450 595 H510"/>
  <path class="edge2" d="M680 595 H930 V351 H970"/>
</svg>
