<svg xmlns="http://www.w3.org/2000/svg" width="1240" height="760" viewBox="0 0 1240 760" role="img" aria-labelledby="title desc">
  <title id="title">Deployment architecture</title>
  <desc id="desc">Nginx routes browser traffic to the Next.js frontend and FastAPI backend. Backend connects to PostgreSQL, Ollama, reports and health metrics. Wazuh, Suricata and DNS workers feed local storage.</desc>
  <defs>
    <marker id="arrow" markerWidth="10" markerHeight="10" refX="8" refY="3" orient="auto" markerUnits="strokeWidth">
      <path d="M0,0 L0,6 L9,3 z" fill="#22d3ee"/>
    </marker>
    <style>
      .bg { fill: #020617; }
      .node { fill: #0f172a; stroke: #334155; stroke-width: 1.2; rx: 8; }
      .service { fill: #082f49; stroke: #22d3ee; stroke-width: 1.2; rx: 8; }
      .store { fill: #0b1220; stroke: #60a5fa; stroke-width: 1.2; rx: 8; }
      .ai { fill: #17112b; stroke: #a78bfa; stroke-width: 1.2; rx: 8; }
      .worker { fill: #052e2b; stroke: #10b981; stroke-width: 1.2; rx: 8; }
      .title { fill: #e5e7eb; font: 700 28px Arial, sans-serif; }
      .subtitle { fill: #94a3b8; font: 400 14px Arial, sans-serif; }
      .label { fill: #e5e7eb; font: 700 14px Arial, sans-serif; text-anchor: middle; }
      .small { fill: #cbd5e1; font: 400 11px Arial, sans-serif; text-anchor: middle; }
      .edge { stroke: #22d3ee; stroke-width: 1.6; fill: none; marker-end: url(#arrow); }
      .muted { stroke: #64748b; stroke-width: 1.35; fill: none; marker-end: url(#arrow); }
    </style>
  </defs>
  <rect class="bg" width="1240" height="760"/>
  <text class="title" x="48" y="54">Deployment Architecture</text>
  <text class="subtitle" x="48" y="80">Production-style demo deployment with Nginx, systemd workers, PostgreSQL and local AI.</text>

  <rect class="node" x="60" y="150" width="160" height="62"/>
  <text class="label" x="140" y="177">User Browser</text>
  <text class="small" x="140" y="198">SOC console</text>
  <rect class="service" x="280" y="150" width="170" height="62"/>
  <text class="label" x="365" y="177">Nginx TLS Proxy</text>
  <text class="small" x="365" y="198">Headers and routing</text>
  <rect class="service" x="520" y="90" width="185" height="62"/>
  <text class="label" x="612" y="117">ai-soc-frontend</text>
  <text class="small" x="612" y="138">Next.js</text>
  <rect class="service" x="520" y="210" width="185" height="62"/>
  <text class="label" x="612" y="237">ai-soc-api</text>
  <text class="small" x="612" y="258">FastAPI</text>

  <rect class="store" x="805" y="90" width="170" height="62"/>
  <text class="label" x="890" y="117">PostgreSQL</text>
  <text class="small" x="890" y="138">Operational data</text>
  <rect class="ai" x="805" y="210" width="170" height="62"/>
  <text class="label" x="890" y="237">Ollama</text>
  <text class="small" x="890" y="258">Local AI runtime</text>
  <rect class="worker" x="805" y="330" width="170" height="62"/>
  <text class="label" x="890" y="357">Report Storage</text>
  <text class="small" x="890" y="378">Local exports</text>
  <rect class="worker" x="805" y="450" width="170" height="62"/>
  <text class="label" x="890" y="477">Health Metrics</text>
  <text class="small" x="890" y="498">Workers and runtime</text>

  <rect class="node" x="60" y="510" width="160" height="62"/>
  <text class="label" x="140" y="537">Wazuh Manager</text>
  <text class="small" x="140" y="558">Indexer / alerts</text>
  <rect class="worker" x="280" y="430" width="170" height="62"/>
  <text class="label" x="365" y="457">Wazuh Ingest</text>
  <text class="small" x="365" y="478">API worker path</text>
  <rect class="node" x="60" y="630" width="160" height="62"/>
  <text class="label" x="140" y="657">Suricata eve.json</text>
  <text class="small" x="140" y="678">Network sensor log</text>
  <rect class="worker" x="280" y="630" width="170" height="62"/>
  <text class="label" x="365" y="657">Suricata Ingest</text>
  <text class="small" x="365" y="678">systemd worker</text>
  <rect class="worker" x="280" y="535" width="170" height="62"/>
  <text class="label" x="365" y="562">DNS Collector</text>
  <text class="small" x="365" y="583">systemd worker</text>

  <path class="edge" d="M220 181 H280"/>
  <path class="edge" d="M450 181 H485 V121 H520"/>
  <path class="edge" d="M450 181 H485 V241 H520"/>
  <path class="edge" d="M705 241 H750 V121 H805"/>
  <path class="edge" d="M705 241 H805"/>
  <path class="edge" d="M705 241 H750 V361 H805"/>
  <path class="edge" d="M705 241 H750 V481 H805"/>
  <path class="edge" d="M705 121 H750 V481 H805"/>

  <path class="edge" d="M220 541 H280"/>
  <path class="edge" d="M450 461 H760 V121 H805"/>
  <path class="edge" d="M220 661 H280"/>
  <path class="edge" d="M450 661 H760 V121 H805"/>
  <path class="edge" d="M365 535 V510 H220"/>
</svg>
