<svg xmlns="http://www.w3.org/2000/svg" width="1180" height="680" viewBox="0 0 1180 680" role="img" aria-labelledby="title desc">
  <title id="title">Deployment architecture</title>
  <desc id="desc">Nginx routes browser traffic to Next.js and FastAPI; API uses PostgreSQL, Ollama and reports; Wazuh, Suricata and DNS workers feed local storage.</desc>
  <defs>
    <marker id="arrow" markerWidth="10" markerHeight="10" refX="8" refY="3" orient="auto" markerUnits="strokeWidth">
      <path d="M0,0 L0,6 L9,3 z" fill="#22d3ee"/>
    </marker>
    <style>
      .bg { fill: #020617; }
      .box { fill: #0f172a; stroke: #334155; stroke-width: 1.2; rx: 8; }
      .service { fill: #082f49; stroke: #22d3ee; stroke-width: 1.2; rx: 8; }
      .store { fill: #0b1220; stroke: #60a5fa; stroke-width: 1.2; rx: 8; }
      .ai { fill: #17112b; stroke: #a78bfa; stroke-width: 1.2; rx: 8; }
      .worker { fill: #052e2b; stroke: #10b981; stroke-width: 1.2; rx: 8; }
      .title { fill: #e5e7eb; font: 700 28px Arial, sans-serif; }
      .subtitle { fill: #94a3b8; font: 400 14px Arial, sans-serif; }
      .label { fill: #e5e7eb; font: 700 15px Arial, sans-serif; text-anchor: middle; }
      .small { fill: #cbd5e1; font: 400 12px Arial, sans-serif; text-anchor: middle; }
      .edge { stroke: #22d3ee; stroke-width: 1.6; fill: none; marker-end: url(#arrow); }
      .muted { stroke: #64748b; stroke-width: 1.3; fill: none; marker-end: url(#arrow); }
    </style>
  </defs>
  <rect class="bg" width="1180" height="680"/>
  <text class="title" x="48" y="58">Deployment Architecture</text>
  <text class="subtitle" x="48" y="84">Production-style demo deployment with Nginx, systemd services, local database and local AI.</text>

  <rect class="box" x="70" y="150" width="160" height="74"/>
  <text class="label" x="150" y="182">User Browser</text>
  <text class="small" x="150" y="204">SOC console</text>
  <rect class="service" x="300" y="150" width="170" height="74"/>
  <text class="label" x="385" y="182">Nginx</text>
  <text class="small" x="385" y="204">TLS / headers / proxy</text>
  <rect class="service" x="560" y="95" width="190" height="74"/>
  <text class="label" x="655" y="127">ai-soc-frontend</text>
  <text class="small" x="655" y="149">Next.js</text>
  <rect class="service" x="560" y="215" width="190" height="74"/>
  <text class="label" x="655" y="247">ai-soc-api</text>
  <text class="small" x="655" y="269">FastAPI</text>

  <rect class="store" x="850" y="135" width="190" height="74"/>
  <text class="label" x="945" y="167">PostgreSQL</text>
  <text class="small" x="945" y="189">Operational datastore</text>
  <rect class="ai" x="850" y="255" width="190" height="74"/>
  <text class="label" x="945" y="287">Ollama</text>
  <text class="small" x="945" y="309">Local AI runtime</text>
  <rect class="worker" x="850" y="375" width="190" height="74"/>
  <text class="label" x="945" y="407">Reports</text>
  <text class="small" x="945" y="429">Local exports</text>

  <rect class="box" x="70" y="430" width="160" height="74"/>
  <text class="label" x="150" y="462">Wazuh</text>
  <text class="small" x="150" y="484">Manager / indexer</text>
  <rect class="worker" x="300" y="370" width="190" height="74"/>
  <text class="label" x="395" y="402">Wazuh Ingest</text>
  <text class="small" x="395" y="424">API / worker path</text>
  <rect class="worker" x="300" y="490" width="190" height="74"/>
  <text class="label" x="395" y="522">Suricata Ingest</text>
  <text class="small" x="395" y="544">ai-soc-suricata-ingest</text>
  <rect class="worker" x="560" y="490" width="190" height="74"/>
  <text class="label" x="655" y="522">DNS Collector</text>
  <text class="small" x="655" y="544">ai-soc-dns-collector</text>

  <path class="edge" d="M230 187 H300"/>
  <path class="edge" d="M470 187 C505 150 520 132 560 132"/>
  <path class="edge" d="M470 187 C505 230 520 252 560 252"/>
  <path class="edge" d="M750 252 C810 235 820 172 850 172"/>
  <path class="edge" d="M750 252 H850"/>
  <path class="edge" d="M750 252 C810 300 820 412 850 412"/>
  <path class="edge" d="M230 467 H300"/>
  <path class="edge" d="M490 407 C620 350 720 210 850 172"/>
  <path class="edge" d="M490 527 H560"/>
  <path class="edge" d="M750 527 C805 527 825 450 850 412"/>
  <path class="muted" d="M655 490 C560 430 390 460 230 467"/>
</svg>
