<svg xmlns="http://www.w3.org/2000/svg" width="980" height="1320" viewBox="0 0 980 1320" role="img" aria-labelledby="title desc">
  <title id="title">Ingestion and correlation pipeline</title>
  <desc id="desc">Telemetry moves through collection, raw events, normalization, alerts, deduplication, noise suppression, correlation, incident creation, AI analysis, case workflow and reporting.</desc>
  <defs>
    <marker id="arrow" markerWidth="10" markerHeight="10" refX="8" refY="3" orient="auto" markerUnits="strokeWidth">
      <path d="M0,0 L0,6 L9,3 z" fill="#22d3ee"/>
    </marker>
    <style>
      .bg { fill: #020617; }
      .node { fill: #0f172a; stroke: #334155; stroke-width: 1.2; rx: 8; }
      .decision { fill: #1f2937; stroke: #f59e0b; stroke-width: 1.2; }
      .state { fill: #052e2b; stroke: #10b981; stroke-width: 1.2; rx: 8; }
      .warn { fill: #2b1d0b; stroke: #f59e0b; stroke-width: 1.2; rx: 8; }
      .incident { fill: #082f49; stroke: #22d3ee; stroke-width: 1.2; rx: 8; }
      .ai { fill: #17112b; stroke: #a78bfa; stroke-width: 1.2; rx: 8; }
      .title { fill: #e5e7eb; font: 700 28px Arial, sans-serif; }
      .subtitle { fill: #94a3b8; font: 400 14px Arial, sans-serif; }
      .label { fill: #e5e7eb; font: 700 14px Arial, sans-serif; text-anchor: middle; }
      .small { fill: #cbd5e1; font: 400 11px Arial, sans-serif; text-anchor: middle; }
      .edge { stroke: #22d3ee; stroke-width: 1.6; fill: none; marker-end: url(#arrow); }
      .branch { stroke: #64748b; stroke-width: 1.35; fill: none; marker-end: url(#arrow); }
      .tag { fill: #94a3b8; font: 700 11px Arial, sans-serif; text-anchor: middle; }
    </style>
  </defs>
  <rect class="bg" width="980" height="1320"/>
  <text class="title" x="48" y="54">Ingestion and Correlation Pipeline</text>
  <text class="subtitle" x="48" y="80">Deterministic policy decides whether a signal is observed, suppressed or promoted to an incident.</text>

  <rect class="node" x="390" y="115" width="200" height="58"/>
  <text class="label" x="490" y="140">Sources</text>
  <text class="small" x="490" y="161">Wazuh / Suricata / DNS</text>
  <rect class="node" x="390" y="195" width="200" height="58"/>
  <text class="label" x="490" y="220">Collect Telemetry</text>
  <text class="small" x="490" y="241">Source-specific ingest</text>
  <rect class="node" x="390" y="275" width="200" height="58"/>
  <text class="label" x="490" y="300">Raw Event</text>
  <text class="small" x="490" y="321">Source context retained</text>
  <rect class="node" x="390" y="355" width="200" height="58"/>
  <text class="label" x="490" y="380">Normalize</text>
  <text class="small" x="490" y="401">Internal model</text>
  <rect class="node" x="390" y="435" width="200" height="58"/>
  <text class="label" x="490" y="460">Security Alert</text>
  <text class="small" x="490" y="481">Normalized signal</text>
  <rect class="node" x="390" y="515" width="200" height="58"/>
  <text class="label" x="490" y="540">Aggregation</text>
  <text class="small" x="490" y="561">Deduplication</text>

  <polygon class="decision" points="490,605 610,665 490,725 370,665"/>
  <text class="label" x="490" y="659">Noise</text>
  <text class="small" x="490" y="680">Suppression Policy</text>

  <rect class="warn" x="90" y="635" width="210" height="60"/>
  <text class="label" x="195" y="661">Suppressed</text>
  <text class="small" x="195" y="683">Retained as context</text>
  <rect class="state" x="710" y="635" width="210" height="60"/>
  <text class="label" x="815" y="661">Observed Only</text>
  <text class="small" x="815" y="683">No incident created</text>

  <rect class="incident" x="390" y="765" width="200" height="58"/>
  <text class="label" x="490" y="790">Correlation Candidate</text>
  <text class="small" x="490" y="811">Escalation evaluation</text>
  <polygon class="decision" points="490,855 610,915 490,975 370,915"/>
  <text class="label" x="490" y="909">Correlation-first</text>
  <text class="small" x="490" y="930">Evaluation</text>

  <rect class="incident" x="90" y="885" width="210" height="60"/>
  <text class="label" x="195" y="911">Incident Created</text>
  <text class="small" x="195" y="933">Policy supported</text>
  <rect class="ai" x="90" y="995" width="210" height="60"/>
  <text class="label" x="195" y="1021">AI Analysis</text>
  <text class="small" x="195" y="1043">When policy allows</text>
  <rect class="ai" x="90" y="1105" width="210" height="60"/>
  <text class="label" x="195" y="1131">Command Brief</text>
  <text class="small" x="195" y="1153">Risk rationale</text>

  <polygon class="decision" points="490,1040 590,1095 490,1150 390,1095"/>
  <text class="label" x="490" y="1089">Investigation</text>
  <text class="small" x="490" y="1110">Needed?</text>
  <rect class="state" x="710" y="1010" width="210" height="60"/>
  <text class="label" x="815" y="1036">Monitor / Update</text>
  <text class="small" x="815" y="1058">Lifecycle only</text>
  <rect class="incident" x="710" y="1120" width="210" height="60"/>
  <text class="label" x="815" y="1146">Case Workflow</text>
  <text class="small" x="815" y="1168">Owner / SLA / closure</text>
  <rect class="state" x="710" y="1230" width="210" height="60"/>
  <text class="label" x="815" y="1256">Reports</text>
  <text class="small" x="815" y="1278">Case / evidence pack</text>

  <path class="edge" d="M490 173 V195"/>
  <path class="edge" d="M490 253 V275"/>
  <path class="edge" d="M490 333 V355"/>
  <path class="edge" d="M490 413 V435"/>
  <path class="edge" d="M490 493 V515"/>
  <path class="edge" d="M490 573 V605"/>

  <path class="branch" d="M370 665 H300"/>
  <text class="tag" x="335" y="653">Known noise</text>
  <path class="branch" d="M610 665 H710"/>
  <text class="tag" x="660" y="653">Low-value observation</text>
  <path class="edge" d="M490 725 V765"/>
  <text class="tag" x="570" y="750">Candidate signal</text>
  <path class="edge" d="M490 823 V855"/>

  <path class="branch" d="M610 915 H675 V665 H710"/>
  <text class="tag" x="760" y="900">Insufficient support</text>
  <path class="branch" d="M370 915 H300"/>
  <text class="tag" x="338" y="903">Meets incident policy</text>

  <path class="edge" d="M195 945 V995"/>
  <path class="edge" d="M195 1055 V1105"/>
  <path class="branch" d="M300 915 H345 V1095 H390"/>
  <path class="branch" d="M590 1095 H680 V1040 H710"/>
  <text class="tag" x="650" y="1081">No</text>
  <path class="branch" d="M590 1095 H680 V1150 H710"/>
  <text class="tag" x="650" y="1128">Yes</text>
  <path class="branch" d="M815 1180 V1230"/>
  <path class="branch" d="M300 915 H330 V1260 H710"/>
</svg>
